<svg width="11" height="10" viewBox="0 0 11 10" fill="none" xmlns="http://www.w3.org/2000/svg">
<path d="M1.03837 6.84211H3.95229L3.3692 8.61421C3.26431 8.93421 3.31727 9.28895 3.51198 9.56263C3.7067 9.83632 4.02239 10 4.35521 10H5.19221C5.34643 10 5.49233 9.93053 5.5915 9.81053L8.03189 6.84211H9.34606C9.91877 6.84211 10.3845 6.37 10.3845 5.78947V1.05263C10.3845 0.472105 9.91877 0 9.34606 0H2.43666C2.22539 0.000710487 2.01931 0.0663996 1.84566 0.18838C1.67201 0.310362 1.53897 0.48289 1.46414 0.683158L0.0326185 4.5521C0.0108833 4.6112 -0.000196457 4.67377 -9.34601e-05 4.73684V5.78947C-9.34601e-05 6.37 0.465657 6.84211 1.03837 6.84211ZM9.34606 5.78947H8.3076V1.05263H9.34606V5.78947ZM1.03837 4.83211L2.43666 1.05263H7.26914V6.12526L4.94921 8.94737H4.35418L5.16521 6.48263C5.19154 6.40352 5.19889 6.31918 5.18664 6.23662C5.17439 6.15405 5.1429 6.07564 5.09477 6.00787C5.04665 5.94011 4.98329 5.88495 4.90994 5.84697C4.83658 5.80899 4.75535 5.78928 4.67298 5.78947H1.03837V4.83211Z" fill="#636363"/>
</svg>
