<?xml version="1.0" encoding="UTF-8"?>
<!DOCTYPE svg PUBLIC "-//W3C//DTD SVG 1.1//EN" "http://www.w3.org/Graphics/SVG/1.1/DTD/svg11.dtd">
<!-- Creator: CorelDRAW X8 -->
<svg xmlns="http://www.w3.org/2000/svg" xml:space="preserve" width="44.4482mm" height="90.5082mm" version="1.1" style="shape-rendering:geometricPrecision; text-rendering:geometricPrecision; image-rendering:optimizeQuality; fill-rule:evenodd; clip-rule:evenodd"
viewBox="0 0 5006 10193"
 xmlns:xlink="http://www.w3.org/1999/xlink">
 <defs>
  <style type="text/css">
   <![CDATA[
    .fil0 {fill:#69B354;fill-rule:nonzero}
   ]]>
  </style>
 </defs>
 <g id="Layer_x0020_1">
  <metadata id="CorelCorpID_0Corel-Layer"/>
  <path class="fil0" d="M2360 6928c0,-2 262,-612 874,-939 239,-129 496,-254 742,-374 382,-186 737,-360 942,-500l88 -61 -22 105c-1,1 -88,417 -395,767 -327,374 -615,673 -951,863 -339,191 -725,269 -1245,198l-56 -7 23 -52zm914 -864c-481,257 -735,696 -811,846 470,55 823,-21 1133,-196 326,-183 608,-477 929,-844 199,-228 301,-484 346,-623 -215,131 -527,283 -857,444 -249,122 -509,249 -740,373z"/>
  <path class="fil0" d="M4947 5224c-1,2 -295,535 -927,840 -618,299 -1575,894 -1577,896l-45 -73c3,-1 964,-599 1585,-899 608,-294 889,-804 890,-806l74 42z"/>
  <path class="fil0" d="M1535 7236c1,-2 58,-663 -326,-1241 -151,-226 -318,-458 -479,-680 -248,-344 -480,-665 -593,-885l-50 -95 -29 102c-1,2 -120,409 -15,863 112,484 224,884 431,1209 209,329 512,580 1004,763l53 20 4 -56zm-397 -1194c302,454 319,961 315,1129 -440,-173 -716,-407 -907,-707 -200,-316 -310,-708 -420,-1183 -68,-295 -37,-568 -10,-713 127,218 330,499 545,797 162,224 331,459 477,677z"/>
  <path class="fil0" d="M1513 7186c1,1 333,410 212,1038l-84 -16c114,-589 -194,-969 -195,-970l67 -52z"/>
  <path class="fil0" d="M2047 4918c-15,-118 -110,-693 -541,-1140 -189,-195 -395,-394 -593,-584 -306,-293 -591,-568 -743,-764l-65 -85 -11 107c0,1 -44,423 140,851 197,456 379,829 642,1112 261,283 600,475 1108,568 39,165 166,713 202,964 21,149 -8,410 -89,774 -78,346 -204,783 -380,1300 -362,1065 -977,2126 -979,2130l74 42c1,-3 622,-1072 986,-2144 177,-521 303,-960 382,-1310 84,-373 113,-646 90,-804 -43,-302 -214,-1017 -214,-1019l-9 2zm-602 -1081c378,392 485,888 512,1054 -464,-92 -777,-272 -1019,-534 -254,-274 -432,-640 -625,-1088 -120,-278 -139,-552 -138,-699 164,191 414,431 679,686 200,192 408,392 591,581z"/>
  <g id="_2345023423088">
   <path class="fil0" d="M2649 4289c0,-2 5,-665 442,-1204 170,-211 359,-427 540,-633 279,-319 540,-617 674,-825l57 -90 20 104c1,2 81,419 -66,860 -157,472 -306,859 -543,1164 -238,308 -563,530 -1070,666l-55 15 1 -57zm508 -1151c-343,423 -408,927 -420,1095 455,-132 751,-339 969,-620 229,-295 375,-675 529,-1138 96,-287 90,-563 77,-709 -146,205 -375,466 -617,742 -183,209 -373,426 -538,630z"/>
   <path class="fil0" d="M4374 1716c0,2 -65,608 -529,1134 -454,514 -1105,1434 -1107,1436l-70 -49c2,-3 657,-926 1113,-1444 447,-505 508,-1085 508,-1087l85 10z"/>
  </g>
  <polygon class="fil0" points="2736,4289 2324,4772 2260,4716 2671,4234 "/>
  <path class="fil0" d="M2132 5625c1,-3 139,-1056 160,-1631 20,-541 -74,-1369 -84,-1459l-467 -828c-1,-2 -235,-490 -321,-686 -84,-189 -530,-889 -532,-891l72 -46c1,2 451,708 537,903 85,189 320,681 320,683l474 838 1 9c0,2 107,900 85,1480 -21,580 -160,1636 -160,1639l-85 -11z"/>
  <path class="fil0" d="M2239 2580c-2,-1 -575,-325 -879,-761 -306,-436 -435,-1297 -435,-1300 0,-122 -54,-378 -74,-519l66 24c1,0 376,132 641,507 102,146 222,359 334,577 170,329 324,670 375,799 90,224 35,640 35,641l-8 63 -55 -31zm-810 -809c238,339 647,609 796,701 10,-121 24,-380 -37,-533 -51,-128 -203,-465 -372,-792 -110,-215 -228,-425 -328,-567 -182,-258 -418,-393 -532,-447l53 373c1,3 127,846 420,1265z"/>
  <path class="fil0" d="M1456 7227c-3,-4 -890,-1320 -1148,-1889 -260,-575 -238,-852 -238,-853l85 5c0,1 -21,258 231,813 255,563 1138,1873 1140,1877l-70 47z"/>
  <polygon class="fil0" points="2469,6935 2020,7319 1965,7255 2414,6870 "/>
  <polygon class="fil0" points="2187,5986 2561,5601 2622,5660 2248,6045 "/>
  <path class="fil0" d="M2527 5667c0,-1 -34,-273 106,-447 14,-18 30,-34 46,-48 67,-57 152,-83 235,-81 83,2 165,31 229,82 17,13 33,29 47,46 20,23 34,50 41,79 17,63 5,135 -25,201 -29,64 -75,124 -127,169 -39,32 -82,57 -124,68 -173,46 -398,-33 -399,-33l-26 -9 -3 -27zm172 -394c-93,116 -93,291 -89,358 60,17 207,53 323,23 30,-8 61,-27 91,-52 43,-36 80,-85 104,-138 23,-50 32,-101 21,-144 -5,-17 -12,-32 -24,-46 -11,-13 -22,-24 -35,-34 -49,-40 -113,-62 -178,-64 -63,-1 -127,18 -178,61 -13,11 -25,23 -35,36z"/>
  <path class="fil0" d="M3055 5471c0,0 -72,127 -312,138l-4 -85c193,-9 242,-96 243,-96l73 43z"/>
 </g>
</svg>
